<?xml version="1.0" standalone="no"?>
<!DOCTYPE svg PUBLIC "-//W3C//DTD SVG 20010904//EN"
 "http://www.w3.org/TR/2001/REC-SVG-20010904/DTD/svg10.dtd">
<svg version="1.0" xmlns="http://www.w3.org/2000/svg"
 width="729.000000pt" height="744.000000pt" viewBox="0 0 729.000000 744.000000"
 preserveAspectRatio="xMidYMid meet">
<ellipse cx="364.5" cy="372" rx="357.5" ry="365.3" fill="#ffffff" stroke="#000000" stroke-width="13" />
<g transform="translate(0.000000,744.000000) scale(0.100000,-0.100000)"
   fill="#ce2135" stroke="none">
<path d="M3460 7354 c-652 -45 -1210 -224 -1715 -552 -844 -548 -1419 -1425
-1589 -2422 -44 -256 -51 -351 -51 -660 0 -374 25 -586 106 -911 233 -931 794
-1710 1589 -2209 141 -88 457 -244 605 -299 1082 -398 2236 -266 3177 365 672
451 1157 1096 1417 1882 139 421 207 924 182 1354 -65 1106 -544 2051 -1376
2709 -512 405 -1155 665 -1805 729 -114 11 -452 20 -540 14z m596 -248 c1155
-152 2118 -874 2602 -1951 144 -321 240 -688 284 -1085 16 -148 16 -573 0
-715 -19 -163 -58 -384 -92 -520 -150 -604 -483 -1187 -918 -1606 -464 -448
-1025 -746 -1645 -873 -384 -80 -863 -81 -1257 -5 -1239 240 -2216 1148 -2570
2389 -233 815 -159 1730 200 2487 446 940 1288 1617 2271 1827 143 31 295 54
424 66 138 12 566 4 701 -14z"/>
<path d="M3380 7039 c-384 -27 -815 -146 -1160 -319 -845 -424 -1464 -1197
-1704 -2130 -29 -114 -62 -290 -82 -443 -21 -160 -30 -565 -15 -723 76 -827
404 -1546 961 -2104 523 -524 1187 -844 1920 -925 175 -19 516 -19 690 0 384
43 710 139 1065 315 275 136 466 264 695 466 216 190 390 388 549 624 356 528
544 1116 576 1805 20 420 -74 974 -234 1380 -251 633 -685 1170 -1246 1541
-595 392 -1276 566 -2015 513z m351 -354 c22 -55 67 -176 100 -270 33 -93 65
-178 70 -187 9 -16 4 -18 -51 -18 -33 0 -63 -1 -67 -2 -5 -2 -19 25 -32 60
l-25 63 -105 -3 -106 -3 -19 -62 -20 -63 -63 0 c-49 0 -63 3 -63 15 0 13 127
378 180 518 l22 58 70 -3 70 -3 39 -100z m362 89 c20 -4 39 -9 41 -13 2 -3 1
-94 -3 -201 -4 -107 -6 -196 -5 -198 1 -2 41 66 89 150 47 84 92 159 99 166
11 11 22 11 62 -1 l49 -14 6 -129 c4 -71 7 -156 8 -189 l2 -60 86 170 c47 94
87 172 88 174 6 5 100 -10 115 -19 10 -6 -7 -47 -80 -182 -82 -153 -145 -266
-186 -335 -13 -21 -14 -21 -71 -4 l-58 17 -6 165 c-9 231 -7 218 -20 194 -94
-173 -174 -305 -184 -305 -8 0 -36 5 -64 12 l-51 11 0 41 c0 23 -3 147 -7 277
-7 264 -4 294 30 285 12 -3 39 -9 60 -12z m-952 -85 c45 -32 63 -75 64 -150 0
-55 -4 -72 -28 -108 l-28 -42 87 -95 c48 -52 85 -96 83 -98 -2 -2 -32 -9 -67
-16 l-63 -13 -35 34 c-19 18 -54 57 -77 86 -31 39 -48 53 -67 53 -52 0 -54 -9
-30 -114 13 -53 20 -99 17 -102 -8 -8 -110 -34 -115 -29 -7 6 -115 483 -123
544 -4 23 2 26 81 48 163 45 240 46 301 2z m-772 -419 l1 -165 56 -99 c30 -54
54 -99 52 -101 -26 -21 -93 -55 -102 -52 -7 3 -36 45 -65 94 l-53 89 -169 102
c-93 57 -169 105 -169 108 0 2 25 20 55 39 l55 36 72 -49 c40 -26 90 -59 112
-72 l38 -23 -3 133 -4 134 55 33 55 33 7 -38 c4 -20 7 -111 7 -202z m2746 132
c66 -36 121 -66 123 -67 2 -2 -7 -23 -20 -49 -21 -44 -42 -56 -63 -38 -6 5
-49 30 -97 55 l-87 46 -31 -55 c-18 -30 -31 -57 -29 -58 2 -2 45 -25 94 -52
50 -26 91 -48 93 -49 5 -3 -50 -95 -56 -95 -4 0 -47 23 -96 50 -49 28 -90 50
-92 50 -1 0 -24 -41 -50 -90 -27 -50 -53 -95 -60 -101 -14 -11 -104 36 -104
56 0 7 26 60 58 117 68 119 89 157 162 290 l53 97 41 -21 c23 -11 95 -50 161
-86z m406 -288 c172 -86 196 -291 52 -445 -116 -124 -275 -142 -391 -44 -118
102 -115 284 7 412 102 106 219 133 332 77z m-3671 -224 c78 -93 146 -172 151
-176 5 -3 50 29 100 70 50 42 94 74 98 71 4 -2 20 -22 36 -45 l28 -40 -29 -22
c-16 -13 -78 -65 -138 -116 -92 -79 -111 -91 -124 -80 -8 7 -87 99 -175 203
-88 105 -167 198 -176 208 -15 17 -13 21 26 58 23 21 46 39 51 39 6 0 74 -76
152 -170z m2105 5 c311 -49 587 -156 842 -324 520 -345 858 -875 950 -1489 25
-170 23 -485 -5 -639 -71 -392 -220 -714 -471 -1014 -314 -376 -778 -648
-1245 -730 -776 -137 -1551 154 -2041 766 -248 309 -396 652 -451 1047 -20
138 -14 487 9 613 55 293 135 511 279 759 103 176 326 430 503 571 308 247
673 398 1084 451 132 16 407 11 546 -11z m2013 -237 c90 -120 106 -151 105
-214 0 -63 -36 -121 -95 -154 -40 -23 -78 -27 -156 -18 -21 3 -29 -8 -69 -102
-24 -58 -48 -108 -52 -112 -8 -9 -81 83 -81 102 0 7 20 58 45 113 43 95 45
101 30 124 -20 30 -23 29 -115 -38 l-73 -53 -29 34 c-57 67 -69 52 180 238
125 94 230 171 234 171 3 1 38 -41 76 -91z m-4463 -133 c94 -80 175 -145 180
-145 6 0 43 40 84 89 l74 89 39 -30 c21 -17 38 -37 38 -44 0 -7 -32 -50 -71
-95 -39 -46 -89 -107 -111 -136 -22 -29 -42 -53 -45 -53 -4 0 -358 297 -410
345 l-33 30 37 48 c21 26 40 47 43 47 3 0 82 -66 175 -145z m-226 -213 c69
-43 176 -110 238 -148 l112 -69 -26 -45 c-14 -25 -29 -49 -34 -54 -6 -7 -414
229 -484 280 -14 10 -12 17 16 63 18 28 37 51 42 51 6 0 67 -35 136 -78z
m5026 -203 c44 -101 50 -122 50 -184 0 -58 -5 -78 -27 -116 -54 -92 -147 -149
-257 -157 -84 -6 -154 22 -207 81 -36 39 -122 208 -127 247 -2 17 25 33 163
96 300 138 335 154 345 150 5 -1 32 -54 60 -117z m-5137 -77 c40 -18 80 -68
88 -110 8 -37 -1 -36 143 -16 62 8 115 13 117 11 8 -8 -48 -127 -60 -128 -6 0
-56 -6 -111 -12 -94 -12 -101 -14 -113 -40 -8 -16 -11 -34 -9 -41 3 -7 42 -28
86 -46 45 -18 83 -35 85 -39 7 -11 -35 -111 -47 -111 -7 0 -95 34 -197 76
-102 41 -215 88 -252 102 -39 16 -68 33 -68 41 0 23 82 223 108 263 47 72 139
92 230 50z m5322 -433 c7 -28 9 -54 4 -58 -18 -17 -109 -41 -152 -41 -37 0
-50 6 -79 35 -20 20 -33 42 -31 52 4 24 48 30 60 9 5 -9 22 -16 40 -16 27 0
30 3 26 25 -4 21 -1 26 21 31 14 3 31 7 36 9 6 2 22 4 37 4 23 1 27 -4 38 -50z
m-5612 -179 l32 -39 -35 -46 c-30 -40 -35 -54 -35 -100 0 -47 5 -59 31 -90 18
-20 48 -42 67 -50 44 -19 135 -19 170 -1 62 32 99 105 86 171 -7 39 -28 55
-73 55 -28 0 -30 -3 -38 -52 l-9 -53 -43 2 c-24 1 -46 5 -49 8 -7 7 23 224 32
233 9 8 235 -35 251 -48 8 -6 21 -45 31 -85 15 -65 16 -84 5 -142 -28 -153
-125 -236 -277 -236 -264 1 -397 282 -229 482 15 17 32 31 38 31 7 0 27 -18
45 -40z m5589 -61 c66 -32 98 -93 98 -189 0 -76 -26 -170 -47 -170 -5 0 -29
11 -53 25 l-43 26 20 46 c22 49 21 111 -2 138 -18 22 -67 19 -79 -4 -6 -10
-15 -52 -22 -92 -6 -41 -19 -93 -29 -116 -30 -68 -99 -100 -179 -82 -92 20
-144 104 -144 229 0 79 27 165 57 176 12 5 96 -41 96 -53 0 -2 -9 -21 -20 -43
-29 -57 -27 -131 4 -167 24 -27 26 -27 53 -13 24 13 30 26 41 85 7 39 17 86
22 106 28 103 128 146 227 98z m-723 -1808 c9 -30 16 -56 16 -57 0 -2 -19 -12
-43 -22 -55 -25 -111 -74 -127 -112 -17 -41 -6 -78 26 -86 20 -5 42 7 124 70
144 111 192 126 270 86 58 -29 84 -72 88 -147 4 -53 0 -71 -25 -125 -41 -87
-110 -161 -187 -198 -34 -17 -75 -32 -91 -33 -28 -2 -30 0 -38 51 -5 29 -7 59
-4 65 3 7 28 20 57 30 61 22 143 97 154 141 9 36 -16 76 -48 76 -24 0 -49 -16
-126 -83 -74 -65 -134 -90 -199 -85 -51 5 -59 9 -97 52 -33 35 -45 58 -50 94
-12 82 40 191 128 266 49 42 139 89 149 79 4 -5 14 -32 23 -62z m-4008 -49 c6
-23 -1 -64 -56 -322 -15 -74 -28 -136 -27 -137 1 0 62 50 136 113 74 63 137
114 140 114 14 0 103 -113 94 -118 -18 -13 -319 -266 -392 -331 l-73 -65 -44
50 c-24 27 -43 56 -44 65 0 17 74 382 89 436 5 18 7 33 5 33 -3 0 -70 -52
-149 -116 l-145 -116 -20 24 c-55 65 -73 99 -61 111 7 7 114 92 239 189 l227
177 37 -42 c21 -23 41 -52 44 -65z m3593 -384 l39 -52 -76 -59 c-43 -32 -79
-60 -80 -62 -4 -3 54 -81 216 -294 40 -52 72 -97 72 -101 0 -5 -45 -44 -101
-88 -14 -10 -34 12 -150 169 -74 100 -141 190 -149 200 -14 18 -19 16 -90 -41
-41 -32 -77 -59 -80 -60 -5 0 -80 96 -80 103 0 2 30 25 68 52 37 27 119 90
182 140 139 109 184 144 187 145 1 0 20 -23 42 -52z m-3111 -123 c28 -20 52
-40 52 -45 0 -5 -45 -79 -99 -165 -110 -172 -124 -210 -95 -271 30 -62 115
-98 174 -74 42 17 67 50 166 216 48 79 90 144 95 144 4 0 35 -16 68 -36 l61
-36 -19 -32 c-200 -329 -217 -353 -286 -386 -65 -31 -159 -26 -238 14 -66 34
-140 103 -168 157 -23 47 -26 144 -4 196 22 52 218 353 230 353 6 0 34 -16 63
-35z m2555 -329 c2 -16 -24 -30 -148 -82 -82 -35 -154 -64 -158 -66 -8 -3 19
-85 34 -102 8 -9 69 12 197 69 46 20 85 35 87 33 6 -6 45 -99 45 -107 0 -4
-60 -32 -132 -61 -73 -29 -137 -56 -141 -60 -11 -10 34 -122 47 -116 193 79
318 126 325 121 10 -6 45 -104 40 -110 -6 -6 -459 -185 -467 -185 -5 0 -34 66
-65 148 -30 81 -79 207 -107 281 -28 74 -49 140 -46 147 2 6 21 17 41 24 21 7
121 47 224 90 l186 78 18 -41 c10 -23 19 -50 20 -61z m-1641 -96 c67 -21 143
-68 177 -111 l20 -26 -55 -38 -55 -38 -32 31 c-113 109 -278 88 -338 -43 -63
-136 36 -275 195 -275 60 0 67 6 80 66 7 30 6 31 -48 44 -80 19 -81 19 -66 79
6 28 17 51 23 51 7 0 69 -14 139 -32 97 -24 128 -35 128 -47 -1 -9 -15 -70
-33 -136 l-33 -119 -55 -19 c-72 -25 -209 -20 -291 12 -75 29 -150 97 -184
168 -31 63 -38 157 -16 229 16 54 67 129 109 161 82 62 217 80 335 43z m881
-70 c93 -35 94 -37 47 -101 l-41 -56 -46 24 c-63 31 -144 31 -204 0 -34 -17
-50 -35 -71 -77 -16 -29 -28 -67 -28 -84 0 -159 155 -250 304 -179 38 18 39
19 30 74 l-6 36 -69 -5 -69 -5 -2 37 c-4 89 -19 79 136 93 77 7 141 12 142 10
2 -1 8 -62 15 -135 14 -152 16 -145 -73 -199 -75 -45 -166 -67 -255 -60 -85 6
-145 31 -202 83 -58 52 -88 107 -101 186 -13 83 -1 146 43 219 39 64 85 102
163 134 78 32 207 35 287 5z m1261 -375 c15 -25 33 -45 40 -45 17 0 29 -27 15
-36 -6 -4 -6 -11 2 -20 15 -19 -15 -31 -36 -14 -11 9 -19 8 -37 -4 -33 -23
-58 -21 -58 7 0 73 25 155 47 157 0 0 13 -20 27 -45z m-3179 5 c3 -5 -1 -23
-10 -39 -14 -28 -14 -31 7 -45 31 -22 42 -20 58 9 13 25 34 33 44 16 6 -9 -74
-161 -84 -161 -3 0 -11 4 -18 9 -12 7 -11 14 3 41 9 17 15 33 13 34 -59 38
-56 38 -73 6 -17 -32 -32 -38 -41 -16 -6 15 72 156 87 156 4 0 11 -4 14 -10z
m3053 -92 c10 -22 10 -34 -2 -67 -15 -45 -12 -49 21 -26 18 13 22 13 33 0 9
-11 2 -19 -42 -44 -29 -17 -56 -31 -60 -31 -13 0 -9 40 9 90 14 41 15 51 3 64
-12 15 -15 15 -40 -9 -14 -14 -29 -25 -33 -25 -15 0 -6 37 14 59 29 31 79 26
97 -11z m-2845 -24 c11 -4 14 -20 10 -72 -7 -109 -12 -132 -28 -125 -8 3 -15
16 -15 29 0 32 -32 47 -81 39 -57 -10 -50 9 29 78 36 31 67 57 68 57 1 0 9 -3
17 -6z m2688 -34 c10 -6 26 -24 34 -40 28 -55 15 -113 -31 -130 -49 -19 -99
22 -110 91 -11 64 50 109 107 79z m-2565 -28 c6 -4 18 -36 26 -72 l14 -65 21
48 c14 29 28 47 39 47 20 0 17 -18 -22 -111 -21 -53 -31 -65 -45 -62 -17 5
-39 74 -39 125 0 30 -15 12 -30 -34 -13 -42 -27 -55 -42 -40 -8 8 -1 35 22 91
33 82 36 87 56 73z m2422 -64 c11 -23 10 -33 -3 -64 -18 -43 -15 -50 13 -35
27 14 29 14 36 -5 4 -11 -9 -22 -50 -41 -75 -34 -86 -23 -51 53 25 57 26 84 2
84 -7 0 -18 -7 -25 -15 -15 -18 -40 -20 -40 -3 0 6 10 22 22 35 31 33 78 28
96 -9z m-2188 -37 c42 -30 54 -66 38 -109 -19 -51 -57 -68 -112 -52 -66 19
-67 21 -37 111 26 79 26 80 56 74 17 -3 41 -13 55 -24z m1920 -40 c0 -11 -9
-21 -24 -25 l-23 -6 19 -60 c20 -61 18 -95 -4 -88 -7 3 -21 33 -31 69 -11 35
-20 65 -22 67 -2 2 -12 -1 -23 -7 -16 -8 -21 -7 -26 6 -8 21 -8 22 61 43 73
24 73 24 73 1z m-1601 -58 c21 -14 22 -16 7 -31 -14 -14 -17 -14 -34 1 -10 9
-25 17 -32 17 -23 0 -50 -32 -50 -60 0 -34 23 -54 64 -55 21 0 31 -5 31 -15 0
-10 -13 -16 -42 -18 -57 -4 -93 29 -93 85 0 87 74 125 149 76z m1441 3 c0 -15
-37 -32 -47 -22 -9 9 -34 -15 -27 -25 3 -5 20 -9 38 -9 60 0 87 -43 55 -84
-17 -21 -29 -26 -65 -26 -38 0 -45 3 -42 18 3 12 12 16 33 15 31 -2 58 13 49
28 -3 5 -21 9 -40 9 -64 0 -93 61 -46 98 23 17 92 16 92 -2z m-1279 -37 c30
-16 28 -62 -3 -96 -16 -17 -18 -25 -9 -41 15 -28 14 -42 -4 -42 -8 0 -22 15
-31 33 -27 53 -54 58 -54 11 0 -17 -5 -24 -20 -24 -11 0 -20 6 -20 14 0 19 29
156 35 166 5 9 77 -5 106 -21z m1129 11 c0 -14 -9 -21 -37 -26 -48 -8 -53 -12
-47 -28 4 -10 17 -12 45 -9 31 5 39 2 39 -10 0 -16 -20 -27 -51 -27 -13 0 -19
-7 -19 -21 0 -19 4 -20 50 -14 42 6 50 4 50 -9 0 -18 -36 -29 -94 -30 l-40 -1
-12 80 c-7 44 -10 82 -8 85 5 4 68 20 117 29 4 0 7 -8 7 -19z m-1495 -5 c30
-13 34 -19 25 -30 -9 -10 -18 -11 -37 -4 -39 14 -43 18 -36 34 6 18 3 18 48 0z
m522 -27 c11 -15 55 -179 50 -185 -9 -8 -37 10 -42 27 -3 10 -20 22 -37 25
-25 6 -34 3 -48 -15 -12 -15 -23 -21 -35 -17 -15 6 -12 15 21 75 54 96 58 102
70 102 6 0 16 -6 21 -12z m1371 -9 c4 -24 -35 -32 -41 -8 -3 10 -2 21 1 24 11
11 37 0 40 -16z m-659 -15 c33 -28 42 -75 20 -116 -13 -24 -67 -48 -109 -48
-24 0 -30 4 -30 23 0 12 -3 52 -6 89 -6 59 -5 67 12 71 48 12 83 6 113 -19z
m-481 -6 c3 -15 -4 -18 -47 -18 -44 0 -51 -3 -51 -20 0 -17 7 -20 40 -20 34 0
40 -3 40 -21 0 -19 -4 -20 -39 -14 -39 6 -40 6 -47 -29 -5 -27 -11 -36 -26
-36 -14 0 -18 5 -14 16 3 9 6 49 6 90 l0 75 67 -3 c55 -2 68 -6 71 -20z m315
8 c8 -20 -2 -26 -44 -26 -41 0 -52 -8 -40 -29 5 -8 22 -11 42 -9 26 2 34 -1
37 -14 3 -15 -4 -18 -37 -18 -34 0 -41 -3 -41 -20 0 -17 7 -20 45 -20 38 0 45
-3 45 -20 0 -18 -7 -20 -65 -20 l-65 0 0 68 c0 37 -3 77 -6 89 -5 19 -1 22 28
26 71 8 96 7 101 -7z m-165 -13 c-2 -10 -9 -19 -16 -19 -6 -1 -16 -2 -22 -3
-6 0 -10 -32 -10 -71 0 -63 -2 -70 -20 -70 -18 0 -20 7 -20 75 0 73 -1 75 -25
75 -16 0 -25 6 -25 15 0 12 15 15 71 15 62 0 70 -2 67 -17z"/>
<path d="M3617 6640 c-11 -25 -67 -198 -67 -204 0 -3 32 -6 70 -6 50 0 70 4
69 13 -2 33 -67 210 -72 197z"/>
<path d="M2940 6598 c-19 -5 -36 -11 -38 -13 -2 -2 6 -48 23 -122 6 -26 22
-28 78 -12 51 14 77 41 77 82 0 65 -54 90 -140 65z"/>
<path d="M5328 5987 c-63 -48 -101 -110 -106 -173 -4 -48 -2 -55 31 -90 32
-35 40 -39 85 -39 40 0 59 6 93 30 81 57 130 156 109 220 -29 88 -131 113
-212 52z"/>
<path d="M3406 5818 c-371 -42 -757 -207 -1051 -448 -87 -72 -257 -246 -317
-325 -145 -192 -258 -401 -327 -610 -232 -695 -88 -1420 391 -1980 436 -509
1111 -770 1788 -690 820 96 1520 709 1726 1513 51 200 67 343 61 557 -5 199
-27 343 -76 515 -229 792 -918 1376 -1736 1470 -106 12 -347 11 -459 -2z m329
-214 c39 -9 95 -17 125 -18 64 -2 153 -45 226 -109 44 -38 84 -101 84 -131 0
-9 21 -21 53 -32 78 -25 137 -57 187 -102 56 -49 105 -140 96 -177 -5 -20 2
-41 28 -83 52 -85 77 -159 83 -239 5 -61 3 -74 -11 -79 -9 -3 -16 -18 -16 -33
-1 -14 -9 -73 -19 -131 l-18 -105 28 -35 c48 -62 59 -143 38 -283 -6 -40 -15
-80 -20 -89 -6 -11 -2 -57 11 -130 40 -218 19 -493 -44 -568 -7 -8 -23 -42
-35 -75 -12 -33 -47 -99 -77 -147 -43 -68 -55 -95 -52 -119 3 -36 -8 -30 498
-255 129 -58 242 -112 250 -120 13 -14 13 -17 -4 -29 -16 -12 -23 -12 -45 0
-15 7 -114 52 -220 99 -345 154 -521 239 -526 255 -2 9 -5 34 -6 56 -2 33 8
56 58 136 62 96 88 156 99 229 5 33 10 39 24 35 15 -5 20 8 35 85 21 109 17
320 -9 440 -15 69 -15 79 0 140 10 38 18 105 18 160 1 106 -13 145 -58 170
-16 8 -25 19 -21 28 13 35 45 242 45 295 0 52 2 58 15 47 24 -20 19 29 -11
118 -27 83 -47 118 -106 198 -21 28 -38 54 -38 58 0 3 11 4 25 0 29 -7 30 -3
11 34 -37 69 -136 139 -246 172 -52 15 -55 18 -68 62 -17 63 -79 130 -154 167
-68 35 -85 38 -90 17 -2 -12 -14 -10 -58 9 -115 49 -295 57 -420 19 l-55 -17
47 -16 c58 -20 70 -31 33 -31 -71 0 -176 -42 -396 -157 -67 -36 -135 -64 -163
-68 -55 -9 -55 -21 -2 -51 l37 -21 -41 -28 c-86 -60 -196 -199 -245 -309 -27
-60 -52 -152 -57 -206 -3 -31 -1 -35 20 -32 22 3 22 1 22 -100 0 -57 6 -129
14 -161 l13 -57 -30 -22 c-16 -12 -41 -46 -54 -76 -23 -48 -25 -64 -21 -145 3
-66 10 -106 26 -141 22 -48 116 -204 160 -263 25 -34 94 -73 129 -73 18 0 21
-8 26 -97 4 -54 7 -121 7 -150 0 -48 -2 -52 -34 -71 -45 -27 -59 -56 -86 -182
-30 -138 -33 -145 -77 -173 -55 -35 -479 -271 -536 -298 -44 -22 -48 -22 -64
-6 -9 9 -15 19 -12 21 2 2 94 54 204 114 188 103 348 193 389 218 13 8 25 44
42 125 31 143 38 161 83 202 l36 32 -5 109 -5 109 -30 10 c-54 17 -93 55 -158
155 -91 138 -125 208 -143 293 -25 118 4 246 69 307 22 20 24 28 16 60 -5 20
-9 70 -9 111 0 63 -3 77 -25 103 -22 26 -24 36 -19 86 9 82 59 226 106 306 22
38 74 104 115 147 l75 78 -21 27 c-41 52 -18 87 64 99 32 4 102 34 200 84 82
43 171 86 197 96 38 14 47 22 50 44 8 70 268 114 443 75z m-10 -104 c90 -23
132 -46 199 -109 l48 -46 -6 40 c-4 22 -10 49 -13 59 -4 16 2 13 35 -13 109
-86 121 -210 29 -301 -47 -46 -60 -50 -47 -14 6 14 10 44 9 67 l-1 42 -12 -45
c-15 -54 -43 -110 -55 -110 -10 0 -21 34 -21 65 -1 58 -85 182 -144 212 l-31
15 36 -38 c54 -58 75 -93 93 -153 15 -52 21 -111 11 -111 -2 0 -27 5 -55 11
-43 9 -53 16 -69 47 -27 53 -84 108 -144 139 -67 34 -217 44 -282 19 l-40 -16
68 5 c129 11 249 -27 321 -101 56 -58 46 -66 -39 -33 -184 72 -270 75 -389 15
-50 -25 -85 -36 -116 -36 -54 -1 -135 -27 -184 -61 -52 -35 -44 -42 15 -13 30
16 76 28 112 32 l61 5 -22 -29 c-13 -16 -35 -46 -49 -67 -17 -25 -50 -50 -96
-74 -39 -21 -93 -59 -121 -86 -56 -54 -62 -56 88 32 39 22 71 39 72 38 1 -1
-5 -30 -13 -64 -14 -57 -14 -67 1 -115 10 -29 33 -78 52 -110 19 -31 34 -60
34 -65 0 -5 -20 -59 -45 -121 -51 -126 -49 -82 -10 -372 17 -118 49 -259 67
-293 9 -18 11 -18 34 4 l24 22 0 -41 c0 -22 5 -53 10 -68 l11 -27 27 26 c16
15 30 27 33 27 3 0 6 -17 7 -37 3 -46 33 -115 67 -155 14 -16 25 -37 25 -47 0
-10 3 -21 7 -25 4 -4 13 28 20 71 19 112 51 159 137 203 67 34 72 35 205 38
136 4 138 3 203 -27 103 -49 195 -37 255 33 18 21 32 26 68 26 85 0 152 -58
181 -157 26 -89 27 -91 31 -68 2 11 16 44 30 73 14 29 28 72 31 97 2 25 9 45
13 45 5 0 9 10 9 22 0 17 3 19 11 11 16 -16 25 -293 11 -318 -8 -16 -11 -15
-17 13 -13 59 -25 44 -25 -30 -1 -82 -11 -137 -42 -221 -21 -59 -38 -62 -38
-6 0 14 -6 41 -12 60 -12 32 -13 26 -18 -76 -5 -101 -9 -115 -40 -173 -29 -55
-109 -142 -130 -142 -4 0 1 24 11 53 10 28 18 66 18 82 l0 30 -11 -25 c-59
-138 -99 -187 -174 -216 -90 -34 -228 1 -322 81 -54 47 -54 31 0 -30 l42 -47
-35 7 c-83 18 -158 57 -204 106 -48 52 -95 138 -95 177 0 12 -5 22 -11 22 -19
0 -2 -97 25 -146 l25 -45 -22 7 c-74 23 -189 105 -229 165 -15 23 -34 65 -42
93 -37 129 -35 127 -33 39 2 -92 -5 -95 -61 -27 -45 54 -65 129 -61 229 2 47
3 85 1 85 -8 0 -32 -72 -33 -97 -1 -24 -3 -22 -16 17 -24 68 -23 277 1 358 20
67 15 96 -7 42 -14 -31 -14 -31 -20 -9 -4 13 -7 52 -7 87 0 34 -4 62 -9 62 -5
0 -11 24 -15 53 -15 115 -98 219 -188 234 -30 4 -42 12 -49 32 -13 33 -4 82
26 140 26 52 53 79 145 145 35 25 57 46 50 46 -29 -1 -98 -38 -140 -76 -41
-37 -90 -118 -90 -149 0 -8 -5 -15 -11 -15 -17 0 -6 225 14 280 9 24 14 46 12
48 -2 2 -16 -5 -31 -17 -15 -12 -29 -19 -32 -17 -7 8 19 79 60 157 69 134 175
246 287 305 l55 28 -48 11 -48 10 183 93 c202 101 298 132 411 132 37 0 68 4
68 8 0 5 -18 18 -40 31 -22 12 -42 26 -45 31 -11 18 139 11 220 -10z m530
-310 c33 -15 74 -40 90 -54 l30 -25 -49 -1 -48 0 56 -60 c71 -77 111 -135 147
-215 34 -75 34 -76 14 -69 -13 5 -14 -5 -9 -68 4 -41 3 -102 -1 -134 l-8 -59
-12 80 c-28 184 -76 313 -160 430 -42 60 -159 175 -177 175 -4 0 -8 10 -8 21
0 19 4 21 38 15 20 -4 64 -20 97 -36z m-809 -51 c32 -6 118 -34 189 -62 119
-46 137 -51 215 -51 100 -1 138 14 206 81 43 44 45 45 69 29 151 -99 276 -336
300 -568 l7 -63 -26 36 c-27 40 -83 79 -110 79 -27 0 -73 -28 -154 -92 l-76
-60 -21 25 -20 26 0 -62 c-1 -43 -10 -88 -30 -143 l-29 -82 36 -78 c20 -44 39
-88 41 -99 3 -11 8 -29 11 -40 5 -18 2 -20 -48 -17 -36 3 -64 -2 -86 -13 -38
-19 -35 -30 4 -15 76 28 165 -2 192 -65 19 -46 18 -74 -6 -112 -44 -72 -122
-86 -220 -39 -35 16 -72 26 -102 26 -37 0 -50 4 -58 21 -17 30 -3 75 32 104
24 21 27 26 13 31 -27 11 -95 -27 -167 -94 -68 -62 -141 -103 -225 -124 -51
-12 -73 -34 -26 -25 l31 6 -33 -49 c-18 -27 -36 -63 -40 -80 -4 -16 -11 -30
-16 -30 -17 0 -50 88 -56 146 -3 30 -9 54 -14 54 -4 0 -21 -11 -37 -25 l-30
-25 -6 23 c-3 12 -6 39 -6 60 0 36 -20 52 -35 27 -14 -23 -24 -6 -44 76 -26
101 -49 268 -52 374 -2 68 1 84 39 174 23 55 42 106 42 114 0 8 -15 40 -33 71
-61 102 -72 150 -51 221 39 131 170 266 297 305 53 17 61 17 133 4z m945 -675
l43 -36 -3 -123 c-2 -107 1 -136 25 -231 26 -102 38 -243 22 -259 -3 -4 -16
-1 -28 5 -29 16 -31 11 -15 -36 10 -30 11 -51 3 -87 -5 -26 -11 -47 -13 -47
-2 0 -17 23 -34 50 -19 32 -50 63 -83 84 -54 35 -149 128 -186 181 -11 17 -28
57 -37 90 -9 33 -32 87 -51 121 l-33 61 27 76 c25 73 29 77 57 77 32 0 66 18
139 74 65 49 108 49 167 0z m126 -215 c14 -27 16 -112 4 -174 -7 -39 -8 -38
-30 57 -23 97 -22 153 2 145 7 -2 18 -14 24 -28z m-1735 -35 c79 -51 113 -162
125 -410 l6 -132 -27 -27 c-22 -22 -33 -26 -59 -21 -43 9 -69 36 -145 151 -84
129 -113 199 -114 278 -2 76 14 126 50 159 46 44 99 45 164 2z m910 -392 l3
-48 -52 0 -52 0 42 47 c23 26 45 47 49 48 3 1 8 -21 10 -47z m518 -13 c0 -5
-9 -9 -20 -9 -16 0 -20 7 -20 33 l1 32 19 -24 c11 -13 20 -27 20 -32z m-1221
-522 c39 -81 81 -136 141 -183 14 -10 47 -45 73 -77 57 -67 138 -127 291 -214
126 -72 242 -113 320 -113 29 0 56 -3 60 -7 3 -4 -13 -26 -36 -50 -58 -59 -25
-58 42 2 47 42 80 57 80 37 0 -5 -7 -31 -15 -58 -8 -27 -15 -59 -15 -71 0 -17
-9 -25 -37 -33 -65 -18 -229 -42 -269 -38 l-38 3 -22 76 c-42 155 -79 191
-309 311 -144 75 -275 164 -313 213 -21 26 -22 38 -21 194 0 149 2 162 14 130
7 -19 31 -74 54 -122z m-135 -177 c48 -82 182 -181 398 -295 152 -80 204 -121
234 -183 25 -53 44 -131 33 -138 -12 -7 -162 31 -254 63 -95 34 -175 75 -270
138 -98 65 -229 196 -221 222 3 10 12 54 21 98 28 145 28 146 59 95z m1449
-262 c13 -112 -105 -235 -296 -307 l-27 -11 6 43 c15 100 74 178 179 234 33
18 74 44 90 57 17 14 33 25 36 26 4 0 9 -19 12 -42z m-1338 -178 c134 -90 299
-160 455 -192 l65 -13 -140 -6 c-77 -4 -204 -7 -282 -8 -78 0 -149 -4 -157 -7
-38 -14 -37 -38 5 -269 22 -125 39 -229 36 -231 -3 -3 -49 15 -103 38 -245
108 -516 305 -655 474 l-59 72 98 53 c130 70 495 278 505 289 5 4 43 -28 85
-72 43 -45 109 -102 147 -128z m1511 69 c120 -57 548 -249 603 -270 24 -10 24
-11 -40 -75 -179 -184 -436 -352 -694 -454 -101 -40 -312 -94 -435 -111 -136
-19 -430 -17 -560 5 -120 20 -259 52 -310 72 l-36 14 -23 143 c-13 78 -32 184
-43 236 -10 51 -17 96 -14 98 3 3 150 9 328 14 390 10 532 26 723 81 159 46
308 157 351 260 10 27 20 48 20 48 1 0 59 -28 130 -61z"/>
<path d="M2918 4460 c-41 -34 -102 -124 -96 -142 3 -7 20 9 39 36 19 27 49 67
67 88 29 37 36 48 29 48 -1 0 -19 -13 -39 -30z"/>
<path d="M4213 3656 c9 -7 17 -16 17 -20 0 -4 -24 -18 -52 -31 -68 -32 -138
-33 -179 -4 l-29 21 -30 -25 c-46 -39 -93 -50 -179 -43 -42 3 -86 9 -99 12
l-23 7 28 30 c28 31 20 29 -30 -6 -23 -15 -35 -17 -65 -10 l-37 9 35 19 c26
14 30 20 18 23 -22 4 -98 -29 -143 -64 -40 -30 -48 -55 -10 -30 35 23 38 21
32 -21 -7 -43 5 -107 35 -175 22 -51 33 -58 53 -32 10 14 16 9 43 -39 17 -30
36 -58 42 -62 5 -3 23 3 39 14 l28 20 11 -24 c7 -14 18 -25 25 -25 23 0 87 75
105 122 9 25 20 46 25 47 32 6 37 0 37 -50 0 -31 4 -48 10 -44 6 3 10 29 10
56 0 49 1 50 27 47 23 -3 29 -12 47 -63 19 -55 21 -57 24 -29 2 18 -3 48 -12
67 -13 33 -13 35 5 40 15 4 28 -6 54 -42 19 -25 52 -57 74 -69 l39 -22 21 26
c12 15 24 37 27 50 3 12 11 21 18 18 20 -8 50 127 43 193 l-6 56 30 -29 c33
-32 38 -23 9 20 -22 34 -86 76 -115 76 -19 -1 -19 -1 -2 -14z m56 -122 c1 -62
-9 -103 -24 -98 -9 4 -15 -8 -20 -38 -8 -52 -30 -88 -52 -88 -17 0 -93 76 -93
94 0 5 10 20 22 33 26 28 21 28 -62 2 -49 -15 -92 -20 -172 -20 -112 0 -134
-9 -72 -29 32 -11 35 -15 29 -39 -7 -31 -55 -103 -72 -109 -7 -2 -17 8 -23 22
-11 31 -17 32 -50 6 -14 -11 -28 -20 -32 -20 -3 0 -19 26 -34 58 -33 71 -30
69 -53 48 -19 -17 -20 -17 -34 11 -24 45 -39 146 -28 176 l10 26 54 -18 c122
-42 253 -50 437 -26 129 17 169 28 220 60 41 26 48 19 49 -51z m-295 25 c-37
-7 -42 -2 -18 15 15 11 22 12 33 3 12 -10 9 -13 -15 -18z"/>
<path d="M3216 3384 c-6 -28 19 -122 30 -111 2 2 -2 34 -10 73 -11 62 -13 66
-20 38z"/>
<path d="M4115 4833 c-11 -2 -56 -16 -100 -31 -100 -33 -168 -33 -298 -3 -103
25 -201 25 -261 2 -39 -15 -28 -23 15 -11 57 17 151 11 250 -15 112 -29 196
-31 264 -5 28 10 76 27 108 36 31 10 57 21 57 26 0 8 -2 8 -35 1z"/>
<path d="M4160 4736 c-19 -8 -73 -31 -120 -52 -106 -47 -180 -49 -310 -9 -168
51 -316 42 -410 -26 -54 -39 -51 -57 3 -19 94 66 209 73 382 25 116 -32 210
-41 261 -25 21 6 83 32 137 57 87 40 105 45 150 40 45 -4 48 -3 32 9 -24 18
-79 17 -125 0z"/>
<path d="M3401 4530 c-43 -19 -117 -89 -142 -134 -13 -25 -21 -48 -17 -51 3
-4 32 11 64 32 51 34 64 38 118 38 50 0 77 -7 146 -39 52 -24 105 -41 137 -44
48 -4 55 -2 83 26 43 44 40 60 -13 60 -31 0 -76 16 -165 57 -128 59 -172 71
-211 55z"/>
<path d="M3876 4458 c-4 -26 -18 -63 -32 -84 -30 -44 -25 -56 10 -21 30 30 47
87 37 124 -7 26 -8 24 -15 -19z"/>
<path d="M3460 4285 c-49 -16 -110 -65 -110 -89 0 -21 6 -20 44 9 43 33 54 32
58 -7 4 -44 45 -66 89 -48 32 14 45 45 35 85 -6 24 -5 25 21 19 34 -8 83 -35
83 -46 0 -4 5 -8 10 -8 19 0 10 36 -13 58 -45 42 -132 53 -217 27z"/>
<path d="M3180 4181 c0 -10 49 -21 89 -21 19 1 22 3 11 9 -23 13 -100 22 -100
12z"/>
<path d="M3234 4121 c-23 -10 -45 -24 -49 -31 -4 -7 -4 -11 1 -9 74 31 104 45
104 52 0 11 -11 8 -56 -12z"/>
<path d="M3631 4094 c-57 -40 -125 -53 -189 -35 -20 6 -32 6 -32 0 0 -18 55
-31 117 -27 49 3 72 10 105 33 39 28 60 56 41 54 -4 0 -23 -12 -42 -25z"/>
<path d="M4150 4311 c-46 -14 -89 -41 -101 -62 -14 -27 2 -46 21 -24 12 14 15
13 26 -14 7 -17 23 -36 36 -42 52 -23 113 35 87 83 -6 11 -9 21 -7 23 7 8 82
-25 104 -46 l24 -22 0 22 c0 59 -109 106 -190 82z"/>
<path d="M4380 4180 c20 -13 33 -13 25 0 -3 6 -14 10 -23 10 -15 0 -15 -2 -2
-10z"/>
<path d="M4102 4109 c7 -22 72 -49 118 -49 28 0 58 8 79 21 45 27 33 35 -23
14 -49 -19 -98 -15 -149 12 -21 10 -28 11 -25 2z"/>
<path d="M2640 4140 c-15 -15 -20 -33 -20 -75 0 -30 5 -55 10 -55 6 0 10 18
10 39 0 100 94 92 149 -13 14 -24 13 -28 -7 -42 -12 -8 -26 -33 -32 -54 -14
-53 14 -121 59 -144 36 -19 41 -20 41 -5 0 6 -11 19 -24 30 -36 29 -51 73 -36
109 14 34 22 37 40 15 20 -24 30 -17 23 18 -19 105 -93 197 -158 197 -22 0
-43 -8 -55 -20z"/>
<path d="M4304 2436 c-22 -10 -35 -25 -43 -49 -34 -103 105 -172 155 -76 28
55 12 102 -41 125 -40 16 -32 16 -71 0z m64 -42 c12 -8 22 -26 22 -39 0 -21
-32 -55 -52 -55 -14 0 -48 39 -48 55 0 16 34 55 48 55 4 0 18 -7 30 -16z"/>
<path d="M3065 2305 c-25 -24 -33 -73 -19 -110 10 -26 62 -48 100 -40 99 18
80 175 -21 175 -25 0 -44 -8 -60 -25z m93 -27 c21 -21 15 -67 -12 -79 -34 -16
-66 3 -66 39 0 33 16 52 45 52 12 0 26 -5 33 -12z"/>
<path d="M5821 5540 c-28 -22 -51 -46 -51 -53 0 -8 16 -32 36 -55 28 -33 42
-42 68 -42 40 0 79 37 79 75 0 27 -49 105 -69 112 -6 2 -34 -15 -63 -37z"/>
<path d="M6035 4998 c-82 -38 -151 -71 -153 -73 -2 -1 8 -26 23 -54 47 -94
131 -116 236 -63 64 32 99 79 99 132 0 46 -28 130 -43 129 -7 -1 -79 -32 -162
-71z"/>
<path d="M1036 4919 c-19 -12 -71 -118 -61 -127 2 -3 35 -18 71 -33 l66 -28
15 37 c29 68 29 107 0 136 -27 27 -60 33 -91 15z"/>
<path d="M5240 1068 c0 -16 4 -28 9 -28 18 0 20 17 6 36 -14 18 -14 18 -15 -8z"/>
<path d="M2250 945 c-14 -16 -6 -35 16 -35 8 0 14 10 14 25 0 28 -12 32 -30
10z"/>
<path d="M4924 935 c-8 -20 9 -66 28 -78 25 -16 48 -1 48 31 0 47 -62 85 -76
47z"/>
<path d="M2596 808 c-29 -71 -29 -77 0 -84 34 -9 55 4 67 40 10 29 -1 49 -35
67 -16 8 -21 5 -32 -23z"/>
<path d="M3060 675 c0 -21 5 -25 30 -25 23 0 30 5 30 19 0 19 -18 31 -46 31
-8 0 -14 -10 -14 -25z"/>
<path d="M3262 633 c-16 -29 -15 -33 8 -33 22 0 23 4 11 35 -8 19 -8 19 -19
-2z"/>
<path d="M3920 643 c0 -10 3 -35 6 -55 5 -30 11 -38 28 -38 31 0 46 19 46 55
0 38 -16 55 -52 55 -20 0 -28 -5 -28 -17z"/>
</g>
</svg>
